<svg xmlns="http://www.w3.org/2000/svg" width="800" height="500" viewBox="0 0 800 500" fill="none">
  <defs>
    <linearGradient id="bg3" x1="0" y1="0" x2="800" y2="500" gradientUnits="userSpaceOnUse">
      <stop offset="0%" stop-color="#050816"/>
      <stop offset="100%" stop-color="#1a100a"/>
    </linearGradient>
  </defs>

  <rect width="800" height="500" fill="url(#bg3)"/>

  <!-- Grid -->
  <g stroke="#ffffff06" stroke-width="1">
    <line x1="0" y1="125" x2="800" y2="125"/>
    <line x1="0" y1="250" x2="800" y2="250"/>
    <line x1="0" y1="375" x2="800" y2="375"/>
    <line x1="200" y1="0" x2="200" y2="500"/>
    <line x1="400" y1="0" x2="400" y2="500"/>
    <line x1="600" y1="0" x2="600" y2="500"/>
  </g>

  <!-- Lecture board -->
  <rect x="60" y="88" width="460" height="324" rx="10" fill="#0d1017" stroke="#fbbf2425" stroke-width="1"/>

  <!-- Board header -->
  <rect x="60" y="88" width="460" height="40" rx="10" fill="#fbbf2415"/>
  <rect x="60" y="116" width="460" height="12" fill="#fbbf2415"/>
  <text x="280" y="114" font-family="sans-serif" font-size="13" fill="#fbbf24" text-anchor="middle" font-weight="700" letter-spacing="1">PARCOURS DE FORMATION</text>

  <!-- Module 1 -->
  <rect x="80" y="148" width="200" height="64" rx="8" fill="#fbbf2410" stroke="#fbbf2430" stroke-width="1"/>
  <text x="90" y="168" font-family="monospace" font-size="9" fill="#fbbf24" font-weight="700">MODULE 01</text>
  <text x="90" y="184" font-family="sans-serif" font-size="11" fill="#e2e8f0">Outils CRM</text>
  <text x="90" y="200" font-family="sans-serif" font-size="10" fill="#94a3b8">Salesforce · Processus</text>
  <rect x="80" y="207" width="140" height="4" rx="2" fill="#fbbf2420"/>
  <rect x="80" y="207" width="140" height="4" rx="2" fill="#fbbf24"/>

  <!-- Module 2 -->
  <rect x="300" y="148" width="200" height="64" rx="8" fill="#fbbf2410" stroke="#fbbf2430" stroke-width="1"/>
  <text x="310" y="168" font-family="monospace" font-size="9" fill="#fbbf24" font-weight="700">MODULE 02</text>
  <text x="310" y="184" font-family="sans-serif" font-size="11" fill="#e2e8f0">Techniques de vente</text>
  <text x="310" y="200" font-family="sans-serif" font-size="10" fill="#94a3b8">Scripts · Objections</text>
  <rect x="300" y="207" width="170" height="4" rx="2" fill="#fbbf2420"/>
  <rect x="300" y="207" width="170" height="4" rx="2" fill="#fbbf24" opacity="0.85"/>

  <!-- Module 3 -->
  <rect x="80" y="228" width="200" height="64" rx="8" fill="#fbbf2408" stroke="#fbbf2425" stroke-width="1"/>
  <text x="90" y="248" font-family="monospace" font-size="9" fill="#fbbf24" font-weight="700">MODULE 03</text>
  <text x="90" y="264" font-family="sans-serif" font-size="11" fill="#e2e8f0">E-learning &amp; LMS</text>
  <text x="90" y="280" font-family="sans-serif" font-size="10" fill="#94a3b8">Blended learning</text>
  <rect x="80" y="287" width="120" height="4" rx="2" fill="#fbbf2420"/>
  <rect x="80" y="287" width="120" height="4" rx="2" fill="#fbbf24" opacity="0.6"/>

  <!-- Module 4 -->
  <rect x="300" y="228" width="200" height="64" rx="8" fill="#fbbf2408" stroke="#fbbf2425" stroke-width="1"/>
  <text x="310" y="248" font-family="monospace" font-size="9" fill="#fbbf24" font-weight="700">MODULE 04</text>
  <text x="310" y="264" font-family="sans-serif" font-size="11" fill="#e2e8f0">Amélioration continue</text>
  <text x="310" y="280" font-family="sans-serif" font-size="10" fill="#94a3b8">KPIs · Suivi post-form.</text>
  <rect x="300" y="287" width="100" height="4" rx="2" fill="#fbbf2420"/>
  <rect x="300" y="287" width="100" height="4" rx="2" fill="#fbbf24" opacity="0.5"/>

  <!-- Quiz section -->
  <rect x="80" y="312" width="420" height="80" rx="8" fill="#0d1017" stroke="#fbbf2418" stroke-width="1"/>
  <text x="290" y="335" font-family="monospace" font-size="10" fill="#94a3b8" text-anchor="middle" letter-spacing="1">ÉVALUATION FORMATIVE</text>

  <!-- Progress bars -->
  <text x="92" y="356" font-family="monospace" font-size="9" fill="#94a3b8">Connaissance produits</text>
  <rect x="220" y="346" width="260" height="8" rx="4" fill="#ffffff08"/>
  <rect x="220" y="346" width="247" height="8" rx="4" fill="#fbbf24" opacity="0.9"/>
  <text x="490" y="356" font-family="monospace" font-size="9" fill="#fbbf24">95%</text>

  <text x="92" y="376" font-family="monospace" font-size="9" fill="#94a3b8">Satisfaction stagiaires</text>
  <rect x="220" y="366" width="260" height="8" rx="4" fill="#ffffff08"/>
  <rect x="220" y="366" width="247" height="8" rx="4" fill="#fbbf24" opacity="0.9"/>
  <text x="490" y="376" font-family="monospace" font-size="9" fill="#fbbf24">95%</text>

  <!-- KPI panel right -->
  <rect x="545" y="88" width="215" height="324" rx="10" fill="#0d1017" stroke="#fbbf2418" stroke-width="1"/>
  <text x="652" y="118" font-family="monospace" font-size="10" fill="#94a3b8" text-anchor="middle" letter-spacing="1">IMPACT</text>

  <text x="652" y="160" font-family="monospace" font-size="36" fill="#fbbf24" text-anchor="middle" font-weight="800">500+</text>
  <text x="652" y="182" font-family="monospace" font-size="10" fill="#94a3b8" text-anchor="middle">professionnels formés</text>

  <line x1="565" y1="200" x2="745" y2="200" stroke="#fbbf2418" stroke-width="1"/>

  <text x="652" y="238" font-family="monospace" font-size="32" fill="#fbbf24" text-anchor="middle" font-weight="800">95%</text>
  <text x="652" y="258" font-family="monospace" font-size="10" fill="#94a3b8" text-anchor="middle">taux de satisfaction</text>

  <line x1="565" y1="276" x2="745" y2="276" stroke="#fbbf2418" stroke-width="1"/>

  <text x="652" y="314" font-family="monospace" font-size="32" fill="#fbbf24" text-anchor="middle" font-weight="800">-30%</text>
  <text x="652" y="334" font-family="monospace" font-size="10" fill="#94a3b8" text-anchor="middle">temps d'intégration</text>

  <line x1="565" y1="352" x2="745" y2="352" stroke="#fbbf2418" stroke-width="1"/>

  <text x="652" y="388" font-family="monospace" font-size="32" fill="#fbbf24" text-anchor="middle" font-weight="800">3 ans</text>
  <text x="652" y="408" font-family="monospace" font-size="10" fill="#94a3b8" text-anchor="middle">chez SFR</text>

  <!-- Title -->
  <text x="400" y="46" font-family="monospace" font-size="13" fill="#c8c8d0" text-anchor="middle" font-weight="600" letter-spacing="2">CHARGÉ DE QUALITÉ, FORMATION &amp; MÉTHODES</text>
  <text x="400" y="64" font-family="monospace" font-size="10" fill="#fbbf24" text-anchor="middle" letter-spacing="1">SFR · 2012 – 2015</text>
</svg>
