<svg xmlns="http://www.w3.org/2000/svg" width="800" height="500" viewBox="0 0 800 500" fill="none">
  <defs>
    <linearGradient id="bg2" x1="0" y1="0" x2="800" y2="500" gradientUnits="userSpaceOnUse">
      <stop offset="0%" stop-color="#050816"/>
      <stop offset="100%" stop-color="#071a10"/>
    </linearGradient>
  </defs>

  <rect width="800" height="500" fill="url(#bg2)"/>

  <!-- Grid -->
  <g stroke="#ffffff06" stroke-width="1">
    <line x1="0" y1="125" x2="800" y2="125"/>
    <line x1="0" y1="250" x2="800" y2="250"/>
    <line x1="0" y1="375" x2="800" y2="375"/>
    <line x1="200" y1="0" x2="200" y2="500"/>
    <line x1="400" y1="0" x2="400" y2="500"/>
    <line x1="600" y1="0" x2="600" y2="500"/>
  </g>

  <!-- Code editor window -->
  <rect x="60" y="80" width="420" height="340" rx="10" fill="#0d1117" stroke="#34d39930" stroke-width="1"/>
  <!-- Title bar -->
  <rect x="60" y="80" width="420" height="32" rx="10" fill="#161b22"/>
  <rect x="60" y="98" width="420" height="14" fill="#161b22"/>
  <circle cx="84" cy="96" r="5" fill="#ff5f57"/>
  <circle cx="101" cy="96" r="5" fill="#febc2e"/>
  <circle cx="118" cy="96" r="5" fill="#28c840"/>
  <text x="200" y="100" font-family="monospace" font-size="11" fill="#8b949e" text-anchor="middle">App.tsx</text>

  <!-- Code lines -->
  <text x="78" y="132" font-family="monospace" font-size="11" fill="#569cd6">import</text>
  <text x="126" y="132" font-family="monospace" font-size="11" fill="#9cdcfe"> React</text>
  <text x="172" y="132" font-family="monospace" font-size="11" fill="#569cd6"> from</text>
  <text x="204" y="132" font-family="monospace" font-size="11" fill="#ce9178"> 'react'</text>

  <text x="78" y="152" font-family="monospace" font-size="11" fill="#569cd6">import</text>
  <text x="126" y="152" font-family="monospace" font-size="11" fill="#9cdcfe"> type</text>
  <text x="164" y="152" font-family="monospace" font-size="11" fill="#c8c8c8"> &#123; FC &#125;</text>
  <text x="207" y="152" font-family="monospace" font-size="11" fill="#569cd6"> from</text>
  <text x="237" y="152" font-family="monospace" font-size="11" fill="#ce9178"> 'react'</text>

  <text x="78" y="180" font-family="monospace" font-size="11" fill="#4ec9b0">const</text>
  <text x="113" y="180" font-family="monospace" font-size="11" fill="#dcdcaa"> Dashboard</text>
  <text x="192" y="180" font-family="monospace" font-size="11" fill="#c8c8c8">: FC = () =&gt; &#123;</text>

  <text x="78" y="200" font-family="monospace" font-size="11" fill="#569cd6">  const</text>
  <text x="116" y="200" font-family="monospace" font-size="11" fill="#9cdcfe"> [data, setData]</text>
  <text x="232" y="200" font-family="monospace" font-size="11" fill="#c8c8c8"> = useState([])</text>

  <text x="78" y="228" font-family="monospace" font-size="11" fill="#6a9955">  // Chargement optimisé</text>
  <text x="78" y="248" font-family="monospace" font-size="11" fill="#569cd6">  useEffect</text>
  <text x="142" y="248" font-family="monospace" font-size="11" fill="#c8c8c8">(() =&gt; &#123;</text>

  <text x="78" y="268" font-family="monospace" font-size="11" fill="#9cdcfe">    fetchData</text>
  <text x="150" y="268" font-family="monospace" font-size="11" fill="#c8c8c8">().then(setData)</text>

  <text x="78" y="288" font-family="monospace" font-size="11" fill="#c8c8c8">  &#125;, [])</text>

  <text x="78" y="316" font-family="monospace" font-size="11" fill="#569cd6">  return</text>
  <text x="118" y="316" font-family="monospace" font-size="11" fill="#c8c8c8"> (</text>

  <text x="78" y="336" font-family="monospace" font-size="11" fill="#4ec9b0">    &lt;Dashboard</text>
  <text x="160" y="336" font-family="monospace" font-size="11" fill="#9cdcfe"> data</text>
  <text x="191" y="336" font-family="monospace" font-size="11" fill="#c8c8c8">=&#123;data&#125;</text>
  <text x="239" y="336" font-family="monospace" font-size="11" fill="#4ec9b0"> /&gt;</text>

  <text x="78" y="356" font-family="monospace" font-size="11" fill="#c8c8c8">  )</text>
  <text x="78" y="376" font-family="monospace" font-size="11" fill="#c8c8c8">&#125;</text>

  <!-- Cursor blink -->
  <rect x="92" y="382" width="8" height="13" rx="1" fill="#34d399" opacity="0.9"/>

  <!-- Tech stack chips -->
  <g>
    <rect x="510" y="88" width="98" height="26" rx="6" fill="#34d39918" stroke="#34d39940" stroke-width="1"/>
    <text x="559" y="105" font-family="monospace" font-size="11" fill="#34d399" text-anchor="middle" font-weight="700">TypeScript</text>

    <rect x="618" y="88" width="72" height="26" rx="6" fill="#61dafb18" stroke="#61dafb40" stroke-width="1"/>
    <text x="654" y="105" font-family="monospace" font-size="11" fill="#61dafb" text-anchor="middle" font-weight="700">React</text>

    <rect x="510" y="124" width="86" height="26" rx="6" fill="#f7df1e18" stroke="#f7df1e40" stroke-width="1"/>
    <text x="553" y="141" font-family="monospace" font-size="11" fill="#f7df1e" text-anchor="middle" font-weight="700">JavaScript</text>

    <rect x="606" y="124" width="84" height="26" rx="6" fill="#38bdf818" stroke="#38bdf840" stroke-width="1"/>
    <text x="648" y="141" font-family="monospace" font-size="11" fill="#38bdf8" text-anchor="middle" font-weight="700">Tailwind</text>

    <rect x="510" y="160" width="76" height="26" rx="6" fill="#21759b18" stroke="#21759b60" stroke-width="1"/>
    <text x="548" y="177" font-family="monospace" font-size="11" fill="#5bb0d5" text-anchor="middle" font-weight="700">WordPress</text>

    <rect x="596" y="160" width="94" height="26" rx="6" fill="#cc534218" stroke="#cc534260" stroke-width="1"/>
    <text x="643" y="177" font-family="monospace" font-size="11" fill="#e07060" text-anchor="middle" font-weight="700">WooCommerce</text>
  </g>

  <!-- Metrics panel -->
  <rect x="510" y="210" width="250" height="190" rx="10" fill="#0d1117" stroke="#34d39920" stroke-width="1"/>
  <text x="635" y="236" font-family="monospace" font-size="10" fill="#8b949e" text-anchor="middle" letter-spacing="1">MÉTRIQUES PROJET</text>

  <!-- Bar chart -->
  <rect x="530" y="320" width="30" height="60" rx="2" fill="#34d399" opacity="0.8"/>
  <text x="545" y="395" font-family="monospace" font-size="8" fill="#8b949e" text-anchor="middle">Perf</text>

  <rect x="575" y="295" width="30" height="85" rx="2" fill="#61dafb" opacity="0.8"/>
  <text x="590" y="395" font-family="monospace" font-size="8" fill="#8b949e" text-anchor="middle">SEO</text>

  <rect x="620" y="268" width="30" height="112" rx="2" fill="#f7df1e" opacity="0.7"/>
  <text x="635" y="395" font-family="monospace" font-size="8" fill="#8b949e" text-anchor="middle">UX</text>

  <rect x="665" y="278" width="30" height="102" rx="2" fill="#a78bfa" opacity="0.8"/>
  <text x="680" y="395" font-family="monospace" font-size="8" fill="#8b949e" text-anchor="middle">QA</text>

  <text x="545" y="312" font-family="monospace" font-size="9" fill="#34d399" text-anchor="middle">-40%</text>
  <text x="590" y="288" font-family="monospace" font-size="9" fill="#61dafb" text-anchor="middle">+35%</text>
  <text x="635" y="260" font-family="monospace" font-size="9" fill="#f7df1e" text-anchor="middle">+15%</text>
  <text x="680" y="270" font-family="monospace" font-size="9" fill="#a78bfa" text-anchor="middle">WCAG</text>

  <!-- Title -->
  <text x="400" y="46" font-family="monospace" font-size="13" fill="#c8c8d0" text-anchor="middle" font-weight="600" letter-spacing="2">DÉVELOPPEUR WEB FRONT-END</text>
  <text x="400" y="64" font-family="monospace" font-size="10" fill="#34d399" text-anchor="middle" letter-spacing="1">ACTIV PARTNERS · 2019 – 2021</text>
</svg>
